<svg version="1.0" xmlns="http://www.w3.org/2000/svg" width="64" height="64" viewBox="0 0 48 48">
    <style type="text/css">
        path { fill: black; }
        .favicon-stroke { stroke-width: 1px; }
        .background { fill: white };

        @media (prefers-color-scheme: dark) {
            .background { fill: black; };
            path { fill: white; }
        }

    </style>

    <rect width="100%" height="100%" class="background"/>

    <path class="favicon-stroke"
          d="M21.5.9c-7 1.7-10.2 5.2-11.6 12.4-.9 4.9.1 7.3 3.4 7.9 2 .4 2.5-.1 3.4-3.3.8-3.2.7-4.1-.7-5.4-1-.9-2.4-1.3-3.5-.9-1.7.7-1.7.5.1-2.5C15.5 4 18.7 2 23.7 2s9.5 2 11.7 5.2c2.2 3.1 2 3.9-.7 3.3-3.7-1-5 1.4-3.5 6.2 1.2 3.9 1.2 3.9 4 2.6 2.5-1.3 2.8-1.9 2.8-6.7 0-4.4-.4-5.6-2.7-7.8-2.4-2.2-8.5-5-10.2-4.7-.3.1-1.9.4-3.6.8z"/>
    <path d="M25 5c-.9.6-1 1-.3 1 .6 0 1.5-.5 1.8-1 .8-1.2.4-1.2-1.5 0zM23 15.5c0 .8.5 1.5 1 1.5.6 0 1-.7 1-1.5s-.4-1.5-1-1.5c-.5 0-1 .7-1 1.5zM19.2 27.5c.2 3.7-.2 5.2-1.5 5.2-.9 0-1.2-.9-1-2.6.4-2.5.4-2.5-1.1-.7-2.2 2.7-2 4.3.5 5.6 1.6.9 1.9 1.8 1.5 3.6-.4 1.4-.2 2.4.4 2.4.5 0 1 1.3 1 2.9 0 4.6 3.4 5.1 7.4 1.2 4-3.9 4.9-3.9 4.1-.1-.9 3.9 2 4.3 2.9.4.4-1.5 1.4-3.4 2.3-4.2 1.5-1.5 1.4-1.7-.4-2.2-2.5-.6-8.7-7.6-7.4-8.4.5-.3 1.2 0 1.4.6.3.8.6.6.6-.5.1-1.5-.4-1.7-3.5-1.1-3.1.6-4 .3-5.5-1.7-1.7-2.2-1.9-2.2-1.7-.4zm9.2 7.2c3.3 3.9 3.2 4.7-.1 6.2-2.6 1.2-3.9.5-4.4-2.2-.1-.4-.3-1.2-.4-1.7-.1-.6-.3-1.5-.4-2.1 0-.6-.8-.9-1.6-.5-1.4.5-2.2-1.4-1-2.5 1.3-1.4 5.6.1 7.9 2.8z"/>
    <path class="favicon-stroke" d="M25.5 28c-1.3.6-1.5.9-.5.9.8 0 2.2-.4 3-.9 1.8-1.2.2-1.2-2.5 0z"/>
</svg>